# xmcd
#
# Track frame offsets:
#	150
#	15555
#	29108
#	44366
#	59932
#	76785
#	94323
#	111401
#	128728
#	148737
#	163421
#	178216
#	192096
#	215448
#	232321
#	248482
#	267348
#	282045
#
# Disc length: 4230 seconds
#
# Revision: 1
# Processed by: cddbd v1.5.2PL0 Copyright (c) Steve Scherf et al.
# Submitted via: audiograbber 1.83.01
#
DISCID=16108412
DTITLE=Brunner and Brunner - Bis in alle Ewigkeit
DYEAR=1900
DGENRE=Deutsch
TTITLE0=Wenn du einsam bist
TTITLE1=Sehnsucht in mit
TTITLE2=Du bist alles auf dieser Welt
TTITLE3=Bis in alle Ewigkeit
TTITLE4=Shananana ( Lass uns leben)
TTITLE5=Schenk´ mir dieser eine Nacht
TTITLE6=Immer wieder, immer mehr
TTITLE7=Du lässt es mich spüren
TTITLE8=Darum lieb´ ich dich
TTITLE9=Baby Blue
TTITLE10=Eis im Vulkan
TTITLE11=Weil dein Herz dich verrät
TTITLE12=Im Namen der Liebe
TTITLE13=Du bist der Tag in meiner Nacht
TTITLE14=Nur die Liebe und Rock´n roll
TTITLE15=Sag´ doch
TTITLE16=Cabriolet
TTITLE17=Party Mix 4
EXTD=
EXTT0=
EXTT1=
EXTT2=
EXTT3=
EXTT4=
EXTT5=
EXTT6=
EXTT7=
EXTT8=
EXTT9=
EXTT10=
EXTT11=
EXTT12=
EXTT13=
EXTT14=
EXTT15=
EXTT16=
EXTT17=
PLAYORDER=
